<mxfile host="app.diagrams.net" agent="Mozilla/5.0 (Windows NT 10.0; Win64; x64) AppleWebKit/537.36 (KHTML, like Gecko) Chrome/127.0.0.0 Safari/537.36" version="24.7.7">
  <diagram id="ZKlnUGB8dS89bE2ZUk5W" name="Strona-1">
    <mxGraphModel dx="2117" dy="522" grid="1" gridSize="10" guides="1" tooltips="1" connect="1" arrows="1" fold="1" page="1" pageScale="1" pageWidth="827" pageHeight="1169" math="0" shadow="0">
      <root>
        <mxCell id="0" />
        <mxCell id="1" parent="0" />
        <mxCell id="AzutiJ6y_Ast-hqMpQgA-1" value="Pool" style="swimlane;html=1;childLayout=stackLayout;resizeParent=1;resizeParentMax=0;startSize=20;horizontal=0;horizontalStack=1;" parent="1" vertex="1">
          <mxGeometry x="-290" y="10" width="1200" height="1720" as="geometry" />
        </mxCell>
        <mxCell id="AzutiJ6y_Ast-hqMpQgA-2" value="Klient" style="swimlane;html=1;startSize=20;" parent="AzutiJ6y_Ast-hqMpQgA-1" vertex="1">
          <mxGeometry x="20" width="410" height="1720" as="geometry" />
        </mxCell>
        <mxCell id="AzutiJ6y_Ast-hqMpQgA-6" value="" style="ellipse;html=1;shape=startState;fillColor=#000000;strokeColor=#ff0000;" parent="AzutiJ6y_Ast-hqMpQgA-2" vertex="1">
          <mxGeometry x="130" y="30" width="30" height="30" as="geometry" />
        </mxCell>
        <mxCell id="AzutiJ6y_Ast-hqMpQgA-7" value="" style="edgeStyle=orthogonalEdgeStyle;html=1;verticalAlign=bottom;endArrow=open;endSize=8;strokeColor=#ff0000;" parent="AzutiJ6y_Ast-hqMpQgA-2" source="AzutiJ6y_Ast-hqMpQgA-6" edge="1">
          <mxGeometry relative="1" as="geometry">
            <mxPoint x="145" y="120" as="targetPoint" />
          </mxGeometry>
        </mxCell>
        <mxCell id="AzutiJ6y_Ast-hqMpQgA-8" value="Klient rejestruje się" style="rounded=1;whiteSpace=wrap;html=1;arcSize=40;fontColor=#000000;fillColor=#ffffc0;strokeColor=#ff0000;" parent="AzutiJ6y_Ast-hqMpQgA-2" vertex="1">
          <mxGeometry x="85" y="120" width="120" height="40" as="geometry" />
        </mxCell>
        <mxCell id="AzutiJ6y_Ast-hqMpQgA-12" value="Otrzymuje uprawnienia" style="rounded=1;whiteSpace=wrap;html=1;arcSize=40;fontColor=#000000;fillColor=#ffffc0;strokeColor=#ff0000;" parent="AzutiJ6y_Ast-hqMpQgA-2" vertex="1">
          <mxGeometry x="100" y="230" width="120" height="40" as="geometry" />
        </mxCell>
        <mxCell id="AzutiJ6y_Ast-hqMpQgA-13" value="" style="edgeStyle=orthogonalEdgeStyle;html=1;verticalAlign=bottom;endArrow=open;endSize=8;strokeColor=#ff0000;entryX=0.5;entryY=0;entryDx=0;entryDy=0;" parent="AzutiJ6y_Ast-hqMpQgA-2" source="AzutiJ6y_Ast-hqMpQgA-12" target="AzutiJ6y_Ast-hqMpQgA-14" edge="1">
          <mxGeometry relative="1" as="geometry">
            <mxPoint x="160" y="330" as="targetPoint" />
          </mxGeometry>
        </mxCell>
        <mxCell id="AzutiJ6y_Ast-hqMpQgA-14" value="Klient wprowadza dane potrzebne do logowania" style="rounded=1;whiteSpace=wrap;html=1;arcSize=40;fontColor=#000000;fillColor=#ffffc0;strokeColor=#ff0000;" parent="AzutiJ6y_Ast-hqMpQgA-2" vertex="1">
          <mxGeometry x="80" y="330" width="120" height="50" as="geometry" />
        </mxCell>
        <mxCell id="AzutiJ6y_Ast-hqMpQgA-25" value="Condition" style="rhombus;whiteSpace=wrap;html=1;fillColor=#ffffc0;strokeColor=#ff0000;" parent="AzutiJ6y_Ast-hqMpQgA-2" vertex="1">
          <mxGeometry x="60" y="440" width="80" height="40" as="geometry" />
        </mxCell>
        <mxCell id="AzutiJ6y_Ast-hqMpQgA-28" value="Klient ponownie wprowadza dane logowania" style="rounded=1;whiteSpace=wrap;html=1;arcSize=40;fontColor=#000000;fillColor=#ffffc0;strokeColor=#ff0000;" parent="AzutiJ6y_Ast-hqMpQgA-2" vertex="1">
          <mxGeometry x="170" y="460" width="120" height="50" as="geometry" />
        </mxCell>
        <mxCell id="AzutiJ6y_Ast-hqMpQgA-29" value="" style="edgeStyle=orthogonalEdgeStyle;html=1;verticalAlign=bottom;endArrow=open;endSize=8;strokeColor=#ff0000;entryX=1;entryY=0.5;entryDx=0;entryDy=0;" parent="AzutiJ6y_Ast-hqMpQgA-2" source="AzutiJ6y_Ast-hqMpQgA-28" target="AzutiJ6y_Ast-hqMpQgA-25" edge="1">
          <mxGeometry relative="1" as="geometry">
            <mxPoint x="230" y="560" as="targetPoint" />
          </mxGeometry>
        </mxCell>
        <mxCell id="AzutiJ6y_Ast-hqMpQgA-31" value="" style="edgeStyle=orthogonalEdgeStyle;html=1;verticalAlign=bottom;endArrow=open;endSize=8;strokeColor=#ff0000;exitX=0;exitY=0.5;exitDx=0;exitDy=0;entryX=0;entryY=0.5;entryDx=0;entryDy=0;" parent="AzutiJ6y_Ast-hqMpQgA-2" source="AzutiJ6y_Ast-hqMpQgA-14" target="AzutiJ6y_Ast-hqMpQgA-25" edge="1">
          <mxGeometry relative="1" as="geometry">
            <mxPoint x="460" y="415" as="targetPoint" />
            <mxPoint x="460" y="355" as="sourcePoint" />
            <Array as="points">
              <mxPoint x="70" y="355" />
              <mxPoint x="70" y="398" />
              <mxPoint x="60" y="398" />
            </Array>
          </mxGeometry>
        </mxCell>
        <mxCell id="AzutiJ6y_Ast-hqMpQgA-33" value="Poprawne zalogowanie" style="rounded=1;whiteSpace=wrap;html=1;arcSize=40;fontColor=#000000;fillColor=#ffffc0;strokeColor=#ff0000;" parent="AzutiJ6y_Ast-hqMpQgA-2" vertex="1">
          <mxGeometry x="85" y="550" width="120" height="40" as="geometry" />
        </mxCell>
        <mxCell id="AzutiJ6y_Ast-hqMpQgA-34" value="" style="edgeStyle=orthogonalEdgeStyle;html=1;verticalAlign=bottom;endArrow=open;endSize=8;strokeColor=#ff0000;" parent="AzutiJ6y_Ast-hqMpQgA-2" source="AzutiJ6y_Ast-hqMpQgA-33" edge="1">
          <mxGeometry relative="1" as="geometry">
            <mxPoint x="145" y="650" as="targetPoint" />
          </mxGeometry>
        </mxCell>
        <mxCell id="AzutiJ6y_Ast-hqMpQgA-35" value="Dodaj do koszyka " style="rounded=1;whiteSpace=wrap;html=1;arcSize=40;fontColor=#000000;fillColor=#ffffc0;strokeColor=#ff0000;" parent="AzutiJ6y_Ast-hqMpQgA-2" vertex="1">
          <mxGeometry x="90" y="650" width="120" height="40" as="geometry" />
        </mxCell>
        <mxCell id="AzutiJ6y_Ast-hqMpQgA-36" value="" style="edgeStyle=orthogonalEdgeStyle;html=1;verticalAlign=bottom;endArrow=open;endSize=8;strokeColor=#ff0000;" parent="AzutiJ6y_Ast-hqMpQgA-2" source="AzutiJ6y_Ast-hqMpQgA-35" edge="1">
          <mxGeometry relative="1" as="geometry">
            <mxPoint x="150" y="750" as="targetPoint" />
          </mxGeometry>
        </mxCell>
        <mxCell id="AzutiJ6y_Ast-hqMpQgA-37" value="Condition" style="rhombus;whiteSpace=wrap;html=1;fillColor=#ffffc0;strokeColor=#ff0000;" parent="AzutiJ6y_Ast-hqMpQgA-2" vertex="1">
          <mxGeometry x="110" y="750" width="80" height="40" as="geometry" />
        </mxCell>
        <mxCell id="AzutiJ6y_Ast-hqMpQgA-40" value="Usuń z koszyka artykół" style="rounded=1;whiteSpace=wrap;html=1;arcSize=40;fontColor=#000000;fillColor=#ffffc0;strokeColor=#ff0000;" parent="AzutiJ6y_Ast-hqMpQgA-2" vertex="1">
          <mxGeometry x="10" y="860" width="120" height="40" as="geometry" />
        </mxCell>
        <mxCell id="AzutiJ6y_Ast-hqMpQgA-41" value="" style="edgeStyle=orthogonalEdgeStyle;html=1;verticalAlign=bottom;endArrow=open;endSize=8;strokeColor=#ff0000;entryX=0;entryY=0.5;entryDx=0;entryDy=0;" parent="AzutiJ6y_Ast-hqMpQgA-2" source="AzutiJ6y_Ast-hqMpQgA-40" target="AzutiJ6y_Ast-hqMpQgA-46" edge="1">
          <mxGeometry relative="1" as="geometry">
            <mxPoint x="70" y="960" as="targetPoint" />
          </mxGeometry>
        </mxCell>
        <mxCell id="AzutiJ6y_Ast-hqMpQgA-42" value="Wyświetl zawartość koszyka" style="rounded=1;whiteSpace=wrap;html=1;arcSize=40;fontColor=#000000;fillColor=#ffffc0;strokeColor=#ff0000;" parent="AzutiJ6y_Ast-hqMpQgA-2" vertex="1">
          <mxGeometry x="145" y="860" width="120" height="40" as="geometry" />
        </mxCell>
        <mxCell id="AzutiJ6y_Ast-hqMpQgA-43" value="" style="edgeStyle=orthogonalEdgeStyle;html=1;verticalAlign=bottom;endArrow=open;endSize=8;strokeColor=#ff0000;entryX=1;entryY=0.5;entryDx=0;entryDy=0;" parent="AzutiJ6y_Ast-hqMpQgA-2" source="AzutiJ6y_Ast-hqMpQgA-42" target="AzutiJ6y_Ast-hqMpQgA-46" edge="1">
          <mxGeometry relative="1" as="geometry">
            <mxPoint x="200" y="970" as="targetPoint" />
            <Array as="points">
              <mxPoint x="205" y="935" />
              <mxPoint x="190" y="935" />
              <mxPoint x="190" y="970" />
              <mxPoint x="170" y="970" />
            </Array>
          </mxGeometry>
        </mxCell>
        <mxCell id="AzutiJ6y_Ast-hqMpQgA-44" value="" style="edgeStyle=orthogonalEdgeStyle;html=1;verticalAlign=bottom;endArrow=open;endSize=8;strokeColor=#ff0000;exitX=0;exitY=0.5;exitDx=0;exitDy=0;" parent="AzutiJ6y_Ast-hqMpQgA-2" source="AzutiJ6y_Ast-hqMpQgA-37" target="AzutiJ6y_Ast-hqMpQgA-40" edge="1">
          <mxGeometry relative="1" as="geometry">
            <mxPoint x="80" y="970" as="targetPoint" />
            <mxPoint x="80" y="910" as="sourcePoint" />
          </mxGeometry>
        </mxCell>
        <mxCell id="AzutiJ6y_Ast-hqMpQgA-45" value="" style="edgeStyle=orthogonalEdgeStyle;html=1;verticalAlign=bottom;endArrow=open;endSize=8;strokeColor=#ff0000;exitX=1;exitY=0.5;exitDx=0;exitDy=0;" parent="AzutiJ6y_Ast-hqMpQgA-2" source="AzutiJ6y_Ast-hqMpQgA-37" target="AzutiJ6y_Ast-hqMpQgA-42" edge="1">
          <mxGeometry relative="1" as="geometry">
            <mxPoint x="90" y="980" as="targetPoint" />
            <mxPoint x="90" y="920" as="sourcePoint" />
          </mxGeometry>
        </mxCell>
        <mxCell id="AzutiJ6y_Ast-hqMpQgA-46" value="Condition" style="rhombus;whiteSpace=wrap;html=1;fillColor=#ffffc0;strokeColor=#ff0000;" parent="AzutiJ6y_Ast-hqMpQgA-2" vertex="1">
          <mxGeometry x="90" y="980" width="80" height="40" as="geometry" />
        </mxCell>
        <mxCell id="AzutiJ6y_Ast-hqMpQgA-50" value="Przekształć zawartość koszyka w zamówienie" style="rounded=1;whiteSpace=wrap;html=1;arcSize=40;fontColor=#000000;fillColor=#ffffc0;strokeColor=#ff0000;" parent="AzutiJ6y_Ast-hqMpQgA-2" vertex="1">
          <mxGeometry x="70" y="1080" width="130" height="60" as="geometry" />
        </mxCell>
        <mxCell id="AzutiJ6y_Ast-hqMpQgA-51" value="" style="edgeStyle=orthogonalEdgeStyle;html=1;verticalAlign=bottom;endArrow=open;endSize=8;strokeColor=#ff0000;" parent="AzutiJ6y_Ast-hqMpQgA-2" source="AzutiJ6y_Ast-hqMpQgA-50" edge="1">
          <mxGeometry relative="1" as="geometry">
            <mxPoint x="130" y="1180" as="targetPoint" />
          </mxGeometry>
        </mxCell>
        <mxCell id="AzutiJ6y_Ast-hqMpQgA-59" value="Condition" style="rhombus;whiteSpace=wrap;html=1;fillColor=#ffffc0;strokeColor=#ff0000;" parent="AzutiJ6y_Ast-hqMpQgA-2" vertex="1">
          <mxGeometry x="90" y="1180" width="80" height="40" as="geometry" />
        </mxCell>
        <mxCell id="AzutiJ6y_Ast-hqMpQgA-61" value="Anuluje zamówienie" style="edgeStyle=orthogonalEdgeStyle;html=1;align=left;verticalAlign=top;endArrow=open;endSize=8;strokeColor=#ff0000;exitX=0;exitY=0.5;exitDx=0;exitDy=0;" parent="AzutiJ6y_Ast-hqMpQgA-2" source="AzutiJ6y_Ast-hqMpQgA-59" edge="1">
          <mxGeometry x="-0.4286" y="-50" relative="1" as="geometry">
            <mxPoint x="80" y="1260" as="targetPoint" />
            <mxPoint as="offset" />
          </mxGeometry>
        </mxCell>
        <mxCell id="AzutiJ6y_Ast-hqMpQgA-62" value="" style="ellipse;html=1;shape=endState;fillColor=#000000;strokeColor=#ff0000;" parent="AzutiJ6y_Ast-hqMpQgA-2" vertex="1">
          <mxGeometry x="60" y="1260" width="30" height="30" as="geometry" />
        </mxCell>
        <mxCell id="AzutiJ6y_Ast-hqMpQgA-63" value="Wprowadza dane karty" style="rounded=1;whiteSpace=wrap;html=1;arcSize=40;fontColor=#000000;fillColor=#ffffc0;strokeColor=#ff0000;" parent="AzutiJ6y_Ast-hqMpQgA-2" vertex="1">
          <mxGeometry x="290" y="1260" width="120" height="40" as="geometry" />
        </mxCell>
        <mxCell id="AzutiJ6y_Ast-hqMpQgA-72" value="Odmowa" style="rounded=1;whiteSpace=wrap;html=1;arcSize=40;fontColor=#000000;fillColor=#ffffc0;strokeColor=#ff0000;" parent="AzutiJ6y_Ast-hqMpQgA-2" vertex="1">
          <mxGeometry x="20" y="1380" width="140" height="60" as="geometry" />
        </mxCell>
        <mxCell id="AzutiJ6y_Ast-hqMpQgA-73" value="" style="edgeStyle=orthogonalEdgeStyle;html=1;verticalAlign=bottom;endArrow=open;endSize=8;strokeColor=#ff0000;entryX=0.5;entryY=0;entryDx=0;entryDy=0;" parent="AzutiJ6y_Ast-hqMpQgA-2" source="AzutiJ6y_Ast-hqMpQgA-72" target="AzutiJ6y_Ast-hqMpQgA-79" edge="1">
          <mxGeometry relative="1" as="geometry">
            <mxPoint x="100" y="1510" as="targetPoint" />
            <Array as="points" />
          </mxGeometry>
        </mxCell>
        <mxCell id="AzutiJ6y_Ast-hqMpQgA-76" value="Klient otrzymuje powiadomienie o pobraniu środków" style="rounded=1;whiteSpace=wrap;html=1;arcSize=40;fontColor=#000000;fillColor=#ffffc0;strokeColor=#ff0000;" parent="AzutiJ6y_Ast-hqMpQgA-2" vertex="1">
          <mxGeometry x="250" y="1440" width="120" height="40" as="geometry" />
        </mxCell>
        <mxCell id="AzutiJ6y_Ast-hqMpQgA-77" value="" style="edgeStyle=orthogonalEdgeStyle;html=1;verticalAlign=bottom;endArrow=open;endSize=8;strokeColor=#ff0000;" parent="AzutiJ6y_Ast-hqMpQgA-2" source="AzutiJ6y_Ast-hqMpQgA-76" edge="1">
          <mxGeometry relative="1" as="geometry">
            <mxPoint x="310" y="1540" as="targetPoint" />
          </mxGeometry>
        </mxCell>
        <mxCell id="AzutiJ6y_Ast-hqMpQgA-78" value="" style="ellipse;html=1;shape=endState;fillColor=#000000;strokeColor=#ff0000;" parent="AzutiJ6y_Ast-hqMpQgA-2" vertex="1">
          <mxGeometry x="295" y="1540" width="30" height="30" as="geometry" />
        </mxCell>
        <mxCell id="AzutiJ6y_Ast-hqMpQgA-79" value="Condition" style="rhombus;whiteSpace=wrap;html=1;fillColor=#ffffc0;strokeColor=#ff0000;" parent="AzutiJ6y_Ast-hqMpQgA-2" vertex="1">
          <mxGeometry x="25" y="1550" width="80" height="40" as="geometry" />
        </mxCell>
        <mxCell id="AzutiJ6y_Ast-hqMpQgA-80" value="Klient próbuje innej karty" style="edgeStyle=orthogonalEdgeStyle;html=1;align=left;verticalAlign=bottom;endArrow=open;endSize=8;strokeColor=#ff0000;entryX=0.5;entryY=1;entryDx=0;entryDy=0;" parent="AzutiJ6y_Ast-hqMpQgA-2" source="AzutiJ6y_Ast-hqMpQgA-79" target="AzutiJ6y_Ast-hqMpQgA-84" edge="1">
          <mxGeometry x="-1" relative="1" as="geometry">
            <mxPoint x="205" y="1610" as="targetPoint" />
          </mxGeometry>
        </mxCell>
        <mxCell id="AzutiJ6y_Ast-hqMpQgA-81" value="Rezygnuje z zakópów" style="edgeStyle=orthogonalEdgeStyle;html=1;align=left;verticalAlign=top;endArrow=open;endSize=8;strokeColor=#ff0000;exitX=0;exitY=0.5;exitDx=0;exitDy=0;" parent="AzutiJ6y_Ast-hqMpQgA-2" source="AzutiJ6y_Ast-hqMpQgA-79" edge="1">
          <mxGeometry x="-0.1579" y="-5" relative="1" as="geometry">
            <mxPoint x="20" y="1650" as="targetPoint" />
            <mxPoint as="offset" />
          </mxGeometry>
        </mxCell>
        <mxCell id="AzutiJ6y_Ast-hqMpQgA-82" value="" style="ellipse;html=1;shape=endState;fillColor=#000000;strokeColor=#ff0000;" parent="AzutiJ6y_Ast-hqMpQgA-2" vertex="1">
          <mxGeometry x="10" y="1650" width="30" height="30" as="geometry" />
        </mxCell>
        <mxCell id="AzutiJ6y_Ast-hqMpQgA-84" value="Condition" style="rhombus;whiteSpace=wrap;html=1;fillColor=#ffffc0;strokeColor=#ff0000;" parent="AzutiJ6y_Ast-hqMpQgA-2" vertex="1">
          <mxGeometry x="160" y="1270" width="80" height="40" as="geometry" />
        </mxCell>
        <mxCell id="AzutiJ6y_Ast-hqMpQgA-60" value="Zatwierdza zamówienie" style="edgeStyle=orthogonalEdgeStyle;html=1;align=left;verticalAlign=bottom;endArrow=open;endSize=8;strokeColor=#ff0000;entryX=0.088;entryY=0.475;entryDx=0;entryDy=0;entryPerimeter=0;exitX=1;exitY=0.5;exitDx=0;exitDy=0;" parent="AzutiJ6y_Ast-hqMpQgA-2" source="AzutiJ6y_Ast-hqMpQgA-59" target="AzutiJ6y_Ast-hqMpQgA-84" edge="1">
          <mxGeometry x="-1" relative="1" as="geometry">
            <mxPoint x="335" y="1260" as="targetPoint" />
          </mxGeometry>
        </mxCell>
        <mxCell id="AzutiJ6y_Ast-hqMpQgA-87" value="" style="edgeStyle=orthogonalEdgeStyle;html=1;verticalAlign=bottom;endArrow=open;endSize=8;strokeColor=#ff0000;entryX=0;entryY=0.5;entryDx=0;entryDy=0;exitX=1;exitY=0.5;exitDx=0;exitDy=0;" parent="AzutiJ6y_Ast-hqMpQgA-2" source="AzutiJ6y_Ast-hqMpQgA-84" target="AzutiJ6y_Ast-hqMpQgA-63" edge="1">
          <mxGeometry relative="1" as="geometry">
            <mxPoint x="110" y="1000" as="targetPoint" />
            <mxPoint x="110" y="940" as="sourcePoint" />
          </mxGeometry>
        </mxCell>
        <mxCell id="AzutiJ6y_Ast-hqMpQgA-3" value="System" style="swimlane;html=1;startSize=20;" parent="AzutiJ6y_Ast-hqMpQgA-1" vertex="1">
          <mxGeometry x="430" width="270" height="1720" as="geometry" />
        </mxCell>
        <mxCell id="AzutiJ6y_Ast-hqMpQgA-10" value="Nadaje uprawnienia klientowi" style="rounded=1;whiteSpace=wrap;html=1;arcSize=40;fontColor=#000000;fillColor=#ffffc0;strokeColor=#ff0000;" parent="AzutiJ6y_Ast-hqMpQgA-3" vertex="1">
          <mxGeometry x="90" y="60" width="120" height="40" as="geometry" />
        </mxCell>
        <mxCell id="AzutiJ6y_Ast-hqMpQgA-16" value="System sprawdza poprawność danych" style="rounded=1;whiteSpace=wrap;html=1;arcSize=40;fontColor=#000000;fillColor=#ffffc0;strokeColor=#ff0000;" parent="AzutiJ6y_Ast-hqMpQgA-3" vertex="1">
          <mxGeometry x="100" y="305" width="120" height="40" as="geometry" />
        </mxCell>
        <mxCell id="AzutiJ6y_Ast-hqMpQgA-17" value="" style="edgeStyle=orthogonalEdgeStyle;html=1;verticalAlign=bottom;endArrow=open;endSize=8;strokeColor=#ff0000;" parent="AzutiJ6y_Ast-hqMpQgA-3" source="AzutiJ6y_Ast-hqMpQgA-16" edge="1">
          <mxGeometry relative="1" as="geometry">
            <mxPoint x="160" y="405" as="targetPoint" />
          </mxGeometry>
        </mxCell>
        <mxCell id="AzutiJ6y_Ast-hqMpQgA-22" value="Condition" style="rhombus;whiteSpace=wrap;html=1;fillColor=#ffffc0;strokeColor=#ff0000;" parent="AzutiJ6y_Ast-hqMpQgA-3" vertex="1">
          <mxGeometry x="120" y="405" width="80" height="40" as="geometry" />
        </mxCell>
        <mxCell id="AzutiJ6y_Ast-hqMpQgA-57" value="Oblicza wartość zamówienia i datę dostawy" style="rounded=1;whiteSpace=wrap;html=1;arcSize=40;fontColor=#000000;fillColor=#ffffc0;strokeColor=#ff0000;" parent="AzutiJ6y_Ast-hqMpQgA-3" vertex="1">
          <mxGeometry x="90" y="1240" width="140" height="40" as="geometry" />
        </mxCell>
        <mxCell id="AzutiJ6y_Ast-hqMpQgA-58" value="" style="edgeStyle=orthogonalEdgeStyle;html=1;verticalAlign=bottom;endArrow=open;endSize=8;strokeColor=#ff0000;" parent="AzutiJ6y_Ast-hqMpQgA-3" source="AzutiJ6y_Ast-hqMpQgA-57" edge="1">
          <mxGeometry relative="1" as="geometry">
            <mxPoint x="150" y="1340" as="targetPoint" />
          </mxGeometry>
        </mxCell>
        <mxCell id="AzutiJ6y_Ast-hqMpQgA-65" value="Wysyła zapytanie do banku" style="rounded=1;whiteSpace=wrap;html=1;arcSize=40;fontColor=#000000;fillColor=#ffffc0;strokeColor=#ff0000;" parent="AzutiJ6y_Ast-hqMpQgA-3" vertex="1">
          <mxGeometry x="110" y="1340" width="120" height="40" as="geometry" />
        </mxCell>
        <mxCell id="AzutiJ6y_Ast-hqMpQgA-4" value="Sklep" style="swimlane;html=1;startSize=20;" parent="AzutiJ6y_Ast-hqMpQgA-1" vertex="1">
          <mxGeometry x="700" width="240" height="1720" as="geometry" />
        </mxCell>
        <mxCell id="AzutiJ6y_Ast-hqMpQgA-5" value="Bank" style="swimlane;html=1;startSize=20;" parent="AzutiJ6y_Ast-hqMpQgA-1" vertex="1">
          <mxGeometry x="940" width="260" height="1720" as="geometry" />
        </mxCell>
        <mxCell id="AzutiJ6y_Ast-hqMpQgA-67" value="Otrzymuje zapytanie w celu weryfikacji limitu oraz daty ważności karty " style="rounded=1;whiteSpace=wrap;html=1;arcSize=40;fontColor=#000000;fillColor=#ffffc0;strokeColor=#ff0000;" parent="AzutiJ6y_Ast-hqMpQgA-5" vertex="1">
          <mxGeometry x="50" y="1260" width="140" height="70" as="geometry" />
        </mxCell>
        <mxCell id="AzutiJ6y_Ast-hqMpQgA-68" value="" style="edgeStyle=orthogonalEdgeStyle;html=1;verticalAlign=bottom;endArrow=open;endSize=8;strokeColor=#ff0000;" parent="AzutiJ6y_Ast-hqMpQgA-5" source="AzutiJ6y_Ast-hqMpQgA-67" edge="1">
          <mxGeometry relative="1" as="geometry">
            <mxPoint x="130" y="1390" as="targetPoint" />
          </mxGeometry>
        </mxCell>
        <mxCell id="AzutiJ6y_Ast-hqMpQgA-69" value="Condition" style="rhombus;whiteSpace=wrap;html=1;fillColor=#ffffc0;strokeColor=#ff0000;" parent="AzutiJ6y_Ast-hqMpQgA-5" vertex="1">
          <mxGeometry x="90" y="1390" width="80" height="40" as="geometry" />
        </mxCell>
        <mxCell id="AzutiJ6y_Ast-hqMpQgA-9" value="" style="edgeStyle=orthogonalEdgeStyle;html=1;verticalAlign=bottom;endArrow=open;endSize=8;strokeColor=#ff0000;entryX=0.5;entryY=0;entryDx=0;entryDy=0;" parent="AzutiJ6y_Ast-hqMpQgA-1" source="AzutiJ6y_Ast-hqMpQgA-8" target="AzutiJ6y_Ast-hqMpQgA-10" edge="1">
          <mxGeometry relative="1" as="geometry">
            <mxPoint x="165" y="220" as="targetPoint" />
          </mxGeometry>
        </mxCell>
        <mxCell id="AzutiJ6y_Ast-hqMpQgA-11" value="" style="edgeStyle=orthogonalEdgeStyle;html=1;verticalAlign=bottom;endArrow=open;endSize=8;strokeColor=#ff0000;entryX=0.667;entryY=0.025;entryDx=0;entryDy=0;entryPerimeter=0;" parent="AzutiJ6y_Ast-hqMpQgA-1" source="AzutiJ6y_Ast-hqMpQgA-10" target="AzutiJ6y_Ast-hqMpQgA-12" edge="1">
          <mxGeometry relative="1" as="geometry">
            <mxPoint x="460" y="220" as="targetPoint" />
            <Array as="points">
              <mxPoint x="410" y="231" />
            </Array>
          </mxGeometry>
        </mxCell>
        <mxCell id="AzutiJ6y_Ast-hqMpQgA-15" value="" style="edgeStyle=orthogonalEdgeStyle;html=1;verticalAlign=bottom;endArrow=open;endSize=8;strokeColor=#ff0000;entryX=0;entryY=0.5;entryDx=0;entryDy=0;exitX=0.5;exitY=0;exitDx=0;exitDy=0;" parent="AzutiJ6y_Ast-hqMpQgA-1" source="AzutiJ6y_Ast-hqMpQgA-25" target="AzutiJ6y_Ast-hqMpQgA-16" edge="1">
          <mxGeometry relative="1" as="geometry">
            <mxPoint x="190" y="430" as="targetPoint" />
            <mxPoint x="280" y="360" as="sourcePoint" />
            <Array as="points">
              <mxPoint x="120" y="400" />
              <mxPoint x="270" y="400" />
              <mxPoint x="270" y="325" />
            </Array>
          </mxGeometry>
        </mxCell>
        <mxCell id="AzutiJ6y_Ast-hqMpQgA-24" value="Podano niepoprawne dane" style="edgeStyle=orthogonalEdgeStyle;html=1;align=left;verticalAlign=top;endArrow=open;endSize=8;strokeColor=#ff0000;exitX=0;exitY=0.5;exitDx=0;exitDy=0;entryX=0.592;entryY=0.025;entryDx=0;entryDy=0;entryPerimeter=0;" parent="AzutiJ6y_Ast-hqMpQgA-1" source="AzutiJ6y_Ast-hqMpQgA-22" target="AzutiJ6y_Ast-hqMpQgA-28" edge="1">
          <mxGeometry x="0.0719" y="-25" relative="1" as="geometry">
            <mxPoint x="270" y="460" as="targetPoint" />
            <mxPoint as="offset" />
          </mxGeometry>
        </mxCell>
        <mxCell id="AzutiJ6y_Ast-hqMpQgA-23" value="Dane się zgadzają" style="edgeStyle=orthogonalEdgeStyle;html=1;align=left;verticalAlign=bottom;endArrow=open;endSize=8;strokeColor=#ff0000;entryX=1;entryY=0.75;entryDx=0;entryDy=0;exitX=1;exitY=0.5;exitDx=0;exitDy=0;" parent="AzutiJ6y_Ast-hqMpQgA-1" source="AzutiJ6y_Ast-hqMpQgA-22" target="AzutiJ6y_Ast-hqMpQgA-33" edge="1">
          <mxGeometry x="-0.1316" y="30" relative="1" as="geometry">
            <mxPoint x="610" y="425" as="targetPoint" />
            <Array as="points">
              <mxPoint x="510" y="470" />
              <mxPoint x="360" y="470" />
              <mxPoint x="360" y="580" />
            </Array>
            <mxPoint as="offset" />
          </mxGeometry>
        </mxCell>
        <mxCell id="AzutiJ6y_Ast-hqMpQgA-64" value="" style="edgeStyle=orthogonalEdgeStyle;html=1;verticalAlign=bottom;endArrow=open;endSize=8;strokeColor=#ff0000;entryX=0;entryY=0.5;entryDx=0;entryDy=0;" parent="AzutiJ6y_Ast-hqMpQgA-1" source="AzutiJ6y_Ast-hqMpQgA-63" target="AzutiJ6y_Ast-hqMpQgA-57" edge="1">
          <mxGeometry relative="1" as="geometry">
            <mxPoint x="370" y="1360" as="targetPoint" />
          </mxGeometry>
        </mxCell>
        <mxCell id="AzutiJ6y_Ast-hqMpQgA-66" value="" style="edgeStyle=orthogonalEdgeStyle;html=1;verticalAlign=bottom;endArrow=open;endSize=8;strokeColor=#ff0000;entryX=0.007;entryY=0.414;entryDx=0;entryDy=0;entryPerimeter=0;" parent="AzutiJ6y_Ast-hqMpQgA-1" source="AzutiJ6y_Ast-hqMpQgA-65" target="AzutiJ6y_Ast-hqMpQgA-67" edge="1">
          <mxGeometry relative="1" as="geometry">
            <mxPoint x="600" y="1440" as="targetPoint" />
          </mxGeometry>
        </mxCell>
        <mxCell id="AzutiJ6y_Ast-hqMpQgA-71" value="Karta jest nieważna lub nie ma wystarczającej ilości środków" style="edgeStyle=orthogonalEdgeStyle;html=1;align=left;verticalAlign=top;endArrow=open;endSize=8;strokeColor=#ff0000;exitX=0;exitY=0.5;exitDx=0;exitDy=0;" parent="AzutiJ6y_Ast-hqMpQgA-1" source="AzutiJ6y_Ast-hqMpQgA-69" target="AzutiJ6y_Ast-hqMpQgA-72" edge="1">
          <mxGeometry x="-0.2941" y="10" relative="1" as="geometry">
            <mxPoint x="360" y="1420" as="targetPoint" />
            <mxPoint as="offset" />
          </mxGeometry>
        </mxCell>
        <mxCell id="AzutiJ6y_Ast-hqMpQgA-70" value="Pobrano środki" style="edgeStyle=orthogonalEdgeStyle;html=1;align=left;verticalAlign=bottom;endArrow=open;endSize=8;strokeColor=#ff0000;exitX=1;exitY=0.5;exitDx=0;exitDy=0;" parent="AzutiJ6y_Ast-hqMpQgA-1" source="AzutiJ6y_Ast-hqMpQgA-69" target="AzutiJ6y_Ast-hqMpQgA-76" edge="1">
          <mxGeometry x="-1" relative="1" as="geometry">
            <mxPoint x="1210" y="1410" as="targetPoint" />
            <Array as="points">
              <mxPoint x="1120" y="1410" />
              <mxPoint x="1120" y="1470" />
            </Array>
          </mxGeometry>
        </mxCell>
        <mxCell id="AzutiJ6y_Ast-hqMpQgA-49" value="" style="edgeStyle=orthogonalEdgeStyle;html=1;verticalAlign=bottom;endArrow=open;endSize=8;strokeColor=#ff0000;exitX=0.5;exitY=1;exitDx=0;exitDy=0;" parent="1" source="AzutiJ6y_Ast-hqMpQgA-46" edge="1">
          <mxGeometry relative="1" as="geometry">
            <mxPoint x="-140" y="1090" as="targetPoint" />
            <mxPoint x="-170" y="940" as="sourcePoint" />
          </mxGeometry>
        </mxCell>
      </root>
    </mxGraphModel>
  </diagram>
</mxfile>
